PathFileType	4	(X/Y/Z)	output.trc
DataRate	CameraRate	NumFrames	NumMarkers	Units	OrigDataRate	OrigDataStartFrame	OrigNumFrames
100	100	15	23	m	100	875	3498
Frame#	Time	C7			T8			EL			EM			US			RS			AA			Fore_Clus_1			Fore_Clus_2			Fore_Clus_3			Fore_Clus_4			Hum_Clus_1			Hum_Clus_2			Hum_Clus_3			Hum_Clus_4			Thor_Clus_1			Thor_Clus_2			Thor_Clus_3			Thor_Clus_4			IJ			PX			GH			Thor_Clus_5		
		X1	Y1	Z1	X2	Y2	Z2	X3	Y3	Z3	X4	Y4	Z4	X5	Y5	Z5	X6	Y6	Z6	X7	Y7	Z7	X8	Y8	Z8	X9	Y9	Z9	X10	Y10	Z10	X11	Y11	Z11	X12	Y12	Z12	X13	Y13	Z13	X14	Y14	Z14	X15	Y15	Z15	X16	Y16	Z16	X17	Y17	Z17	X18	Y18	Z18	X19	Y19	Z19	X20	Y20	Z20	X21	Y21	Z21	X22	Y22	Z22	X23	Y23	Z23
874	8.740000	-0.056167	1.472040	-0.099590	-0.080733	1.237653	-0.131123	-0.226305	1.071768	0.102110	-0.191130	1.058487	0.048658	-0.234593	0.833569	0.177904	-0.191352	0.838183	0.210111	-0.185116	1.381174	0.058265	-0.256544	0.907313	0.173869	-0.255507	0.857514	0.195894	-0.236529	0.866395	0.214538	-0.225763	0.921774	0.203734	-0.212652	1.174439	0.125748	-0.248289	1.181024	0.077742	-0.250409	1.244592	0.074580	-0.209023	1.248027	0.116343	0.078911	1.374432	0.017047	0.047316	1.326502	0.078858	0.043073	1.371926	0.043370	0.099114	1.330077	0.040481	0.014843	1.383382	-0.014104	0.050933	1.172252	0.038395	-0.150994	1.360720	0.025279	0.038290	1.346081	0.068136
875	8.750000	-0.056134	1.472040	-0.099844	-0.080672	1.237656	-0.131424	-0.226857	1.071897	0.102259	-0.191175	1.058381	0.049203	-0.229670	0.836164	0.186296	-0.187242	0.843412	0.219094	-0.185200	1.381152	0.057903	-0.254091	0.909089	0.178952	-0.251911	0.860037	0.203116	-0.233567	0.870141	0.221780	-0.224615	0.925832	0.208821	-0.213582	1.174630	0.125476	-0.248714	1.180961	0.077038	-0.250878	1.244515	0.073633	-0.209910	1.248145	0.115785	0.078839	1.374433	0.016906	0.047237	1.326483	0.078688	0.042953	1.371869	0.043186	0.099050	1.330074	0.040325	0.014813	1.383372	-0.014316	0.050867	1.172236	0.038183	-0.151084	1.360529	0.024682	0.038237	1.346079	0.067989
876	8.760000	-0.056121	1.472057	-0.100069	-0.080618	1.237680	-0.131729	-0.227450	1.071964	0.102147	-0.191287	1.058266	0.049465	-0.224637	0.839318	0.194775	-0.183050	0.849272	0.227939	-0.185288	1.381115	0.057565	-0.251566	0.911032	0.184390	-0.248060	0.863080	0.210362	-0.230368	0.874460	0.228895	-0.223027	0.929822	0.213855	-0.214447	1.174752	0.125034	-0.249180	1.180880	0.076277	-0.251358	1.244430	0.072590	-0.210665	1.248109	0.115307	0.079040	1.374414	0.016778	0.047171	1.326476	0.078502	0.042862	1.371871	0.043017	0.099000	1.330091	0.040152	0.014775	1.383371	-0.014516	0.050811	1.172225	0.037952	-0.151181	1.360345	0.024127	0.038162	1.346045	0.067821
877	8.770000	-0.056131	1.472076	-0.100278	-0.080562	1.237705	-0.132034	-0.228065	1.071971	0.101800	-0.191438	1.058143	0.049474	-0.219536	0.843071	0.203293	-0.178821	0.855780	0.236597	-0.185383	1.381056	0.057240	-0.248636	0.913254	0.189485	-0.244097	0.866548	0.217616	-0.227078	0.879265	0.235876	-0.221465	0.934211	0.218800	-0.215279	1.174781	0.124511	-0.249618	1.180754	0.075457	-0.251814	1.244285	0.071551	-0.211550	1.248182	0.114428	0.079555	1.374388	0.016743	0.047098	1.326414	0.078362	0.042779	1.371862	0.042831	0.098938	1.330094	0.039984	0.014725	1.383375	-0.014709	0.050768	1.172217	0.037709	-0.151282	1.360171	0.023615	0.038087	1.346017	0.067645
878	8.780000	-0.056172	1.472097	-0.100470	-0.080512	1.237732	-0.132337	-0.228685	1.071922	0.101248	-0.191604	1.058009	0.049265	-0.214408	0.847456	0.211795	-0.174601	0.862944	0.245020	-0.185490	1.380973	0.056933	-0.245567	0.915837	0.194497	-0.240050	0.870502	0.224772	-0.223838	0.884657	0.242785	-0.219591	0.938876	0.223253	-0.216152	1.174751	0.123830	-0.250061	1.180637	0.074495	-0.252219	1.244126	0.070466	-0.212335	1.248220	0.113592	0.079334	1.374397	0.016565	0.047017	1.326379	0.078210	0.042713	1.371883	0.042670	0.098873	1.330133	0.039811	0.014661	1.383383	-0.014895	0.050737	1.172215	0.037458	-0.151380	1.360006	0.023149	0.037984	1.345978	0.067458
879	8.790000	-0.056249	1.472124	-0.100637	-0.080477	1.237764	-0.132630	-0.229295	1.071823	0.100526	-0.191765	1.057864	0.048879	-0.209294	0.852494	0.220225	-0.170433	0.870757	0.253159	-0.185608	1.380870	0.056658	-0.242588	0.918832	0.199480	-0.235895	0.875129	0.231819	-0.220059	0.890516	0.248873	-0.217856	0.944038	0.227578	-0.217002	1.174701	0.123178	-0.250570	1.180499	0.073545	-0.252617	1.243973	0.069363	-0.212994	1.247988	0.113001	0.079207	1.374405	0.016391	0.046931	1.326359	0.078064	0.042555	1.371840	0.042470	0.098784	1.330162	0.039648	0.014578	1.383398	-0.015071	0.050715	1.172219	0.037198	-0.151466	1.359849	0.022732	0.037877	1.345959	0.067277
880	8.800000	-0.056362	1.472138	-0.100799	-0.080448	1.237780	-0.132912	-0.229880	1.071685	0.099672	-0.191899	1.057714	0.048359	-0.204237	0.858194	0.228530	-0.166361	0.879204	0.260969	-0.185739	1.380740	0.056397	-0.239593	0.922352	0.204469	-0.231816	0.880384	0.238811	-0.216527	0.896942	0.255177	-0.216060	0.949552	0.231975	-0.217809	1.174572	0.122390	-0.250958	1.180333	0.072463	-0.253040	1.243809	0.068287	-0.213710	1.247860	0.112215	0.079017	1.374441	0.016204	0.046918	1.326464	0.077697	0.042415	1.371867	0.042299	0.098688	1.330198	0.039487	0.014476	1.383410	-0.015244	0.050706	1.172227	0.036942	-0.151542	1.359704	0.022365	0.037752	1.345944	0.067097
881	8.810000	-0.056518	1.472153	-0.100939	-0.080445	1.237795	-0.133175	-0.230430	1.071516	0.098726	-0.191996	1.057559	0.047747	-0.199270	0.864555	0.236654	-0.162417	0.888259	0.268408	-0.185880	1.380594	0.056175	-0.236772	0.926248	0.209293	-0.227645	0.886253	0.245557	-0.213130	0.903991	0.261308	-0.214467	0.955594	0.235635	-0.218567	1.174392	0.121439	-0.251316	1.180145	0.071340	-0.253385	1.243645	0.067114	-0.214487	1.247722	0.111378	0.078925	1.374486	0.016051	0.046786	1.326455	0.077542	0.042245	1.371844	0.042138	0.098581	1.330254	0.039321	0.014353	1.383428	-0.015407	0.050704	1.172242	0.036685	-0.151601	1.359570	0.022050	0.037604	1.345963	0.066952
882	8.820000	-0.056713	1.472153	-0.101073	-0.080458	1.237791	-0.133415	-0.230934	1.071328	0.097729	-0.192044	1.057406	0.047088	-0.194425	0.871564	0.244549	-0.158631	0.897890	0.275437	-0.186033	1.380428	0.055980	-0.233393	0.930698	0.214127	-0.223562	0.892659	0.252167	-0.209837	0.911549	0.267131	-0.212731	0.961927	0.239282	-0.219328	1.174198	0.120603	-0.251667	1.179935	0.070142	-0.253732	1.243427	0.065954	-0.215236	1.247677	0.110313	0.078305	1.374718	0.015827	0.046668	1.326467	0.077349	0.042104	1.371860	0.041978	0.098449	1.330304	0.039150	0.014211	1.383443	-0.015568	0.050711	1.172262	0.036437	-0.151646	1.359449	0.021785	0.037405	1.345936	0.066674
883	8.830000	-0.056944	1.472138	-0.101200	-0.080494	1.237770	-0.133630	-0.231387	1.071131	0.096720	-0.192039	1.057258	0.046420	-0.189726	0.879199	0.252170	-0.155024	0.908056	0.282026	-0.186192	1.380248	0.055815	-0.230368	0.935596	0.218780	-0.219442	0.899627	0.258483	-0.206965	0.919806	0.273122	-0.211048	0.968711	0.242677	-0.220109	1.173973	0.119724	-0.251892	1.179695	0.069006	-0.254026	1.243192	0.064751	-0.215917	1.247337	0.109690	0.078508	1.374694	0.015704	0.046459	1.326418	0.077239	0.041962	1.371854	0.041804	0.098312	1.330364	0.038972	0.014051	1.383456	-0.015726	0.050724	1.172286	0.036202	-0.151679	1.359344	0.021570	0.037230	1.345957	0.066484
884	8.840000	-0.057210	1.472116	-0.101314	-0.080561	1.237737	-0.133815	-0.231787	1.070935	0.095735	-0.191981	1.057120	0.045781	-0.185187	0.887429	0.259476	-0.151607	0.918715	0.288145	-0.186354	1.380063	0.055691	-0.227351	0.941027	0.223335	-0.215517	0.907231	0.264730	-0.203812	0.928440	0.278622	-0.208980	0.975656	0.245818	-0.220848	1.173806	0.118875	-0.252114	1.179506	0.067770	-0.254288	1.242995	0.063590	-0.216599	1.247138	0.108960	0.077875	1.374924	0.015493	0.046322	1.326407	0.077086	0.041859	1.371878	0.041649	0.098158	1.330428	0.038794	0.013875	1.383469	-0.015878	0.050740	1.172314	0.035977	-0.151699	1.359254	0.021400	0.037066	1.345973	0.066297
885	8.850000	-0.057499	1.472071	-0.101434	-0.080645	1.237676	-0.133970	-0.232132	1.070750	0.094809	-0.191873	1.056996	0.045202	-0.180821	0.896218	0.266436	-0.148388	0.929820	0.293773	-0.186518	1.379873	0.055589	-0.224388	0.946857	0.227792	-0.211706	0.915389	0.270709	-0.201019	0.937777	0.283794	-0.207390	0.983179	0.248733	-0.221481	1.173704	0.118025	-0.252325	1.179294	0.066696	-0.254580	1.242778	0.062506	-0.217370	1.247131	0.107947	0.078356	1.374772	0.015378	0.046211	1.326442	0.076888	0.041526	1.371894	0.041458	0.098016	1.330479	0.038610	0.013689	1.383474	-0.016034	0.050762	1.172344	0.035775	-0.151715	1.359183	0.021272	0.036919	1.345981	0.066127
886	8.860000	-0.057811	1.472019	-0.101546	-0.080761	1.237607	-0.134092	-0.232427	1.070585	0.093970	-0.191726	1.056889	0.044709	-0.176628	0.905524	0.273018	-0.145365	0.941322	0.298893	-0.186676	1.379691	0.055528	-0.221539	0.953138	0.232112	-0.207981	0.924044	0.276449	-0.197892	0.947279	0.288453	-0.205444	0.990728	0.251306	-0.222105	1.173559	0.117298	-0.252446	1.179119	0.065673	-0.254808	1.242610	0.061398	-0.218012	1.247042	0.107305	0.078116	1.374842	0.015203	0.046082	1.326479	0.076671	0.041427	1.371949	0.041275	0.097891	1.330539	0.038400	0.013496	1.383478	-0.016185	0.050781	1.172377	0.035588	-0.151725	1.359128	0.021183	0.036810	1.346020	0.065981
887	8.870000	-0.058132	1.471951	-0.101662	-0.080897	1.237517	-0.134183	-0.232676	1.070448	0.093243	-0.191548	1.056802	0.044324	-0.172608	0.915304	0.279203	-0.142535	0.953173	0.303491	-0.186826	1.379519	0.055491	-0.218821	0.959759	0.236252	-0.204437	0.933067	0.281827	-0.194999	0.957092	0.292755	-0.203662	0.998631	0.253569	-0.222706	1.173469	0.116698	-0.252636	1.178991	0.064740	-0.255021	1.242439	0.060493	-0.218651	1.246989	0.106683	0.077970	1.374902	0.015019	0.045965	1.326517	0.076499	0.041296	1.372005	0.041120	0.097771	1.330589	0.038199	0.013301	1.383476	-0.016338	0.050800	1.172410	0.035424	-0.151736	1.359092	0.021125	0.036726	1.346057	0.065845
888	8.880000	-0.058456	1.471869	-0.101784	-0.081053	1.237411	-0.134245	-0.232885	1.070343	0.092649	-0.191350	1.056738	0.044063	-0.168754	0.925510	0.284973	-0.139893	0.965324	0.307560	-0.186963	1.379362	0.055477	-0.216146	0.966620	0.240114	-0.201120	0.942500	0.286797	-0.192252	0.967203	0.296643	-0.202059	1.006546	0.255822	-0.223219	1.173448	0.116190	-0.252756	1.178897	0.064003	-0.255217	1.242361	0.059680	-0.219277	1.246915	0.106109	0.077894	1.374901	0.014834	0.045886	1.326552	0.076328	0.041192	1.372062	0.040948	0.097656	1.330629	0.038022	0.013109	1.383469	-0.016494	0.050816	1.172443	0.035281	-0.151751	1.359074	0.021094	0.036625	1.346101	0.065687
